<svg width="255" height="253" viewBox="0 0 255 253" fill="none" xmlns="http://www.w3.org/2000/svg">
<path d="M202.966 205.107C202.966 205.107 263.012 192.724 252.892 114.148C242.772 35.5729 176.541 0 124.928 0C73.315 0 0 50.545 0 123.267C0 195.989 47.115 205.107 47.115 205.107H202.966Z" fill="white"/>
<path d="M126.385 163.494C126.385 163.494 171.688 161.471 201.664 189.233C201.664 189.233 209.891 222.841 185.887 237.902C161.883 252.964 126.385 252.964 126.385 252.964C126.385 252.964 37.1322 256.56 47.7253 192.156C47.6126 192.268 59.3327 163.494 126.385 163.494Z" fill="white"/>
<path d="M194.098 195.2C194.098 195.2 247.498 184.2 238.498 114.4C229.498 44.6 170.598 13 124.698 13C78.7984 13 13.5984 57.9 13.5984 122.5C13.5984 187.1 55.4984 195.2 55.4984 195.2H194.098Z" fill="#F02127"/>
<path d="M126.098 158.3C126.098 158.3 166.298 156.5 192.898 181.2C192.898 181.2 200.198 211.1 178.898 224.5C157.598 237.9 126.098 237.9 126.098 237.9C126.098 237.9 46.8983 241.1 56.2983 183.8C56.1983 183.9 66.5983 158.3 126.098 158.3Z" fill="#F9E0C4"/>
<path d="M126.098 124C154.154 124 176.898 101.256 176.898 73.2C176.898 45.144 154.154 22.4 126.098 22.4C98.0423 22.4 75.2983 45.144 75.2983 73.2C75.2983 101.256 98.0423 124 126.098 124Z" fill="#F3F3F3"/>
<path d="M101.598 208.5C104.912 208.5 107.598 200.441 107.598 190.5C107.598 180.559 104.912 172.5 101.598 172.5C98.2847 172.5 95.5984 180.559 95.5984 190.5C95.5984 200.441 98.2847 208.5 101.598 208.5Z" fill="#0F0A00"/>
<path d="M150.098 208.5C153.412 208.5 156.098 200.441 156.098 190.5C156.098 180.559 153.412 172.5 150.098 172.5C146.785 172.5 144.098 180.559 144.098 190.5C144.098 200.441 146.785 208.5 150.098 208.5Z" fill="#0F0A00"/>
<path d="M236.298 153.7C223.698 145.3 214.698 123 214.698 96.8C214.698 84.6 216.698 73.2 220.098 63.6C220.098 63.6 234.298 85.2 238.698 107.9C242.898 130.5 236.298 153.7 236.298 153.7Z" fill="#F3F3F3"/>
<path d="M16.7984 153.7C29.3984 145.3 38.3983 123 38.3983 96.8C38.3983 84.6 36.3983 73.2 32.9983 63.6C32.9983 63.6 17.5984 85.3 14.3983 107.9C10.1983 130.5 16.7984 153.7 16.7984 153.7Z" fill="#F3F3F3"/>
</svg>
